# xmcd
#
# Track frame offsets:
#	150
#	11706
#	21898
#	33509
#	45382
#	54953
#	67655
#	78776
#	90041
#	100198
#
# Disc length: 1492
#
# Revision: 2
# Processed by: cddbd v1.5.1PL0 Copyright (c) Steve Scherf et al.
# Submitted via: audiograbber 1.82.01
# Normalized: r1:DSETVAR1
#
DISCID=5f05d20a
DTITLE=Various Artist - Country Classics - Hits of 1967
DYEAR=1999
DGENRE=Country
TTITLE0=Leon Ashley - Laura (What's He Got That I Ain't Got)
TTITLE1=Jim Ed Brown - Pop a Top
TTITLE2=Henson Cargill - Skip a Rope
TTITLE3=Jack Greene - All the Time
TTITLE4=Bonnie Guitar - A Woman in Love
TTITLE5=David Houston - My Elusive Dreams
TTITLE6=Stu Phillips - Juanita Jones
TTITLE7=Wynn Stewart - It's Such a Pretty World Today
TTITLE8=Ferlin Husky - Just For You
TTITLE9=Liz Anderson - Mama Spank
EXTD=
EXTT0=
EXTT1=
EXTT2=
EXTT3=
EXTT4=
EXTT5=
EXTT6=
EXTT7=
EXTT8=
EXTT9=
PLAYORDER=
